<svg fill='#80868B'  width="18" height="18" viewBox="0 0 18 18" xmlns="http://www.w3.org/2000/svg">
<path fill-rule="evenodd" clip-rule="evenodd" d="M9 1.5C4.86 1.5 1.5 4.86 1.5 9C1.5 13.14 4.86 16.5 9 16.5C13.14 16.5 16.5 13.14 16.5 9C16.5 4.86 13.14 1.5 9 1.5ZM2.99997 8.99996C2.99997 8.54246 3.05997 8.09246 3.15747 7.66496L6.74247 11.25V12C6.74247 12.825 7.41747 13.5 8.24247 13.5V14.9475C5.29497 14.5725 2.99997 12.0525 2.99997 8.99996ZM11.9925 12.0001C12.6675 12.0001 13.2225 12.4426 13.4175 13.0501C14.3925 11.9851 15 10.5601 15 9.00009C15 6.48759 13.44 4.32759 11.2425 3.44259V3.75009C11.2425 4.57509 10.5675 5.25009 9.74249 5.25009H8.24249V6.75009C8.24249 7.16259 7.90499 7.50009 7.49249 7.50009H5.99249V9.00009H10.4925C10.905 9.00009 11.2425 9.33759 11.2425 9.75009V12.0001H11.9925Z" />
</svg>
